<svg width="417" height="163" viewBox="0 0 417 163" fill="none" xmlns="http://www.w3.org/2000/svg">
<g clip-path="url(#clip0_23_685)">
<path d="M161.862 159.978H183.032V69.8584H161.862V159.978ZM172.404 58.0401C179.036 58.0401 184.222 52.9388 184.222 46.5626C184.222 40.101 179.036 35 172.404 35C165.858 35 160.672 40.1013 160.672 46.5626C160.672 52.9391 165.858 58.0401 172.404 58.0401ZM253.516 35.2544C217.723 35.2544 195.277 59.6551 195.277 98.6795C195.277 137.704 217.721 162.02 253.516 162.02C289.223 162.02 311.669 137.704 311.669 98.6795C311.669 59.6551 289.225 35.2544 253.516 35.2544ZM253.516 53.9587C275.365 53.9587 289.308 71.3028 289.308 98.6791C289.308 125.97 275.365 143.315 253.516 143.315C231.581 143.315 217.723 125.971 217.723 98.6791C217.723 71.3032 231.581 53.9587 253.516 53.9587ZM320.599 125.461C321.535 148.077 340.069 162.019 368.295 162.019C397.967 162.019 416.672 147.396 416.672 124.1C416.672 105.821 406.129 95.534 381.219 89.8382L367.106 86.6074C352.057 83.0366 345.851 78.2756 345.851 70.1137C345.851 59.9114 355.203 53.1099 369.061 53.1099C383.089 53.1099 392.696 59.9965 393.716 71.474H414.631C414.121 49.8791 396.267 35.2551 369.232 35.2551C342.535 35.2551 323.576 49.9634 323.576 71.7287C323.576 89.2427 334.288 100.125 356.902 105.312L372.801 109.053C388.274 112.709 394.565 117.81 394.565 126.652C394.565 136.854 384.278 144.166 369.486 144.166C354.522 144.166 343.216 136.769 341.855 125.461H320.601L320.599 125.461Z" fill="black"/>
</g>
<g clip-path="url(#clip1_23_685)">
<path d="M116.089 86.4319C116.328 111.052 138.752 119.245 139 119.35C138.81 119.927 135.417 131.025 127.186 142.489C120.071 152.399 112.687 162.274 101.054 162.478C89.6235 162.679 85.948 156.018 72.8798 156.018C59.8156 156.018 55.7319 162.274 44.9117 162.679C33.6831 163.084 25.1326 151.962 17.9584 142.087C3.2987 121.889 -7.90433 85.0117 7.1385 60.1188C14.6115 47.7569 27.9662 39.9288 42.4616 39.7281C53.4878 39.5276 63.8953 46.7977 70.6357 46.7977C77.3719 46.7977 90.0192 38.0548 103.315 39.3388C108.881 39.5596 124.505 41.4815 134.537 55.4766C133.729 55.9542 115.895 65.8486 116.089 86.4319ZM94.6064 25.9758C100.568 19.0989 104.58 9.52546 103.485 0C94.8926 0.329131 84.502 5.45703 78.3385 12.3302C72.8149 18.4168 67.9774 28.1587 69.2826 37.4956C78.8604 38.2018 88.6448 32.8572 94.6064 25.9758Z" fill="black"/>
</g>
<defs>
<clipPath id="clip0_23_685">
<rect width="257" height="128" fill="white" transform="translate(160 35)"/>
</clipPath>
<clipPath id="clip1_23_685">
<rect width="139" height="163" fill="white"/>
</clipPath>
</defs>
</svg>
