<svg width="128" height="128" viewBox="0 0 128 128" fill="none" xmlns="http://www.w3.org/2000/svg">
<g clip-path="url(#clip0_33_898)">
<path d="M50.4321 92.1597C50.4321 92.1597 46.526 94.4312 53.212 95.1999C61.3119 96.1239 65.4516 95.9914 74.3777 94.302C74.3777 94.302 76.7245 95.7735 80.0019 97.048C59.9919 105.624 34.7153 96.5512 50.4321 92.1597Z" fill="#5382A1"/>
<path d="M47.9868 80.9683C47.9868 80.9683 43.6057 84.2112 50.2966 84.9033C58.9491 85.796 65.7822 85.869 77.6061 83.5922C77.6061 83.5922 79.2415 85.2502 81.8131 86.1569C57.6198 93.2313 30.6728 86.7148 47.9868 80.9683Z" fill="#5382A1"/>
<path d="M68.5999 61.9848C73.5304 67.6613 67.3045 72.7695 67.3045 72.7695C67.3045 72.7695 79.8238 66.3066 74.0742 58.2136C68.7043 50.6664 64.5863 46.9165 86.8795 33.9873C86.8795 33.9873 51.8866 42.7269 68.5999 61.9848Z" fill="#E76F00"/>
<path d="M95.0648 100.437C95.0648 100.437 97.9554 102.819 91.8813 104.661C80.3313 108.16 43.8088 109.217 33.6631 104.801C30.0159 103.214 36.8553 101.012 39.0068 100.55C41.2505 100.063 42.5327 100.154 42.5327 100.154C38.4767 97.2969 16.3164 105.765 31.2764 108.19C72.0744 114.806 105.647 105.21 95.0648 100.437Z" fill="#5382A1"/>
<path d="M52.3105 69.3731C52.3105 69.3731 33.7329 73.7856 45.7317 75.3879C50.798 76.0662 60.8975 75.9128 70.3049 75.1245C77.9932 74.476 85.7132 73.0971 85.7132 73.0971C85.7132 73.0971 83.0022 74.2581 81.0409 75.5973C62.1756 80.5589 25.7314 78.2507 36.2232 73.1756C45.0961 68.8865 52.3105 69.3731 52.3105 69.3731Z" fill="#5382A1"/>
<path d="M85.6364 88.0013C104.814 78.036 95.9469 68.4594 89.758 69.7496C88.241 70.0653 87.5647 70.3389 87.5647 70.3389C87.5647 70.3389 88.1278 69.4567 89.2034 69.0749C101.447 64.7704 110.863 81.7705 85.251 88.5036C85.251 88.5036 85.5477 88.2385 85.6364 88.0013Z" fill="#5382A1"/>
<path d="M74.0741 13.1099C74.0741 13.1099 84.6948 23.7342 64.0007 40.0714C47.4062 53.1767 60.2167 60.649 63.9939 69.1864C54.3073 60.4468 47.1987 52.7533 51.9677 45.5929C58.9675 35.082 78.3593 29.986 74.0741 13.1099Z" fill="#E76F00"/>
<path d="M54.1948 115.005C72.6027 116.183 100.87 114.351 101.54 105.641C101.54 105.641 100.253 108.943 86.3265 111.565C70.6149 114.522 51.2369 114.177 39.7437 112.282C39.7437 112.282 42.0965 114.229 54.1948 115.005Z" fill="#5382A1"/>
</g>
<defs>
<clipPath id="clip0_33_898">
<rect width="75.7642" height="102.4" fill="white" transform="translate(26 13)"/>
</clipPath>
</defs>
</svg>
