<svg width="289" height="268" viewBox="0 0 289 268" fill="none" xmlns="http://www.w3.org/2000/svg">
<rect x="15.8242" width="255.686" height="267.346" rx="49" fill="black"/>
<g clip-path="url(#clip0_3_488)">
<path d="M239.056 116.566C239.056 103.946 223.236 91.986 198.979 84.5693C204.577 59.8725 202.089 40.2238 191.126 33.9331C188.599 32.4575 185.646 31.7585 182.419 31.7585V40.418C184.207 40.418 185.646 40.7675 186.851 41.4276C192.137 44.4564 194.431 55.9894 192.642 70.8229C192.215 74.4731 191.516 78.3174 190.66 82.2393C183.041 80.3754 174.722 78.9387 165.976 78.0068C160.729 70.8229 155.286 64.2992 149.805 58.5911C162.477 46.8252 174.373 40.3791 182.458 40.3791V31.7197C171.768 31.7197 157.774 39.3307 143.625 52.5333C129.475 39.4083 115.481 31.8751 104.791 31.8751V40.5344C112.838 40.5344 124.771 46.9417 137.444 58.6299C132.002 64.3381 126.559 70.8229 121.389 78.0068C112.604 78.9387 104.285 80.3754 96.6667 82.2781C95.7722 78.3951 95.1116 74.6284 94.6449 71.0171C92.8186 56.1835 95.0725 44.6506 100.321 41.5829C101.487 40.8839 103.002 40.5733 104.791 40.5733V31.9139C101.526 31.9139 98.5711 32.6129 96.0061 34.0885C85.0825 40.3791 82.6339 59.989 88.27 84.6081C64.0915 92.0637 48.3481 103.985 48.3481 116.566C48.3481 129.187 64.1692 141.147 88.4255 148.563C82.8277 173.26 85.3155 192.908 96.2781 199.199C98.805 200.675 101.759 201.374 105.024 201.374C115.714 201.374 129.709 193.763 143.858 180.56C158.007 193.686 172.002 201.219 182.691 201.219C185.956 201.219 188.911 200.52 191.477 199.044C202.399 192.753 204.849 173.143 199.212 148.525C223.313 141.108 239.056 129.148 239.056 116.566ZM188.445 90.6657C187.006 95.6753 185.218 100.839 183.196 106.004C181.603 102.898 179.932 99.7911 178.104 96.6843C176.316 93.5781 174.411 90.5493 172.507 87.5981C178.026 88.4135 183.352 89.4232 188.445 90.6657ZM170.64 132.021C167.609 137.264 164.499 142.234 161.273 146.855C155.48 147.36 149.611 147.631 143.702 147.631C137.832 147.631 131.962 147.36 126.21 146.893C122.983 142.272 119.834 137.341 116.802 132.137C113.848 127.051 111.166 121.886 108.717 116.683C111.127 111.479 113.848 106.276 116.764 101.189C119.796 95.9471 122.905 90.9764 126.132 86.3555C131.924 85.8506 137.793 85.5788 143.702 85.5788C149.572 85.5788 155.442 85.8506 161.195 86.3166C164.421 90.9376 167.57 95.869 170.602 101.073C173.557 106.159 176.238 111.324 178.688 116.528C176.238 121.731 173.557 126.934 170.64 132.021ZM183.196 126.973C185.237 132.034 187.027 137.192 188.561 142.428C183.468 143.67 178.104 144.719 172.546 145.534C174.45 142.545 176.355 139.477 178.144 136.331C179.932 133.225 181.603 130.079 183.196 126.973ZM143.78 168.407C140.164 164.678 136.549 160.523 132.973 155.98C136.472 156.136 140.048 156.252 143.663 156.252C147.317 156.252 150.932 156.175 154.47 155.98C151.133 160.312 147.565 164.46 143.78 168.407ZM114.859 145.534C109.339 144.719 104.013 143.709 98.9214 142.467C100.359 137.457 102.148 132.293 104.169 127.128C105.763 130.235 107.435 133.342 109.261 136.448C111.088 139.554 112.954 142.583 114.859 145.534ZM143.586 64.7264C147.201 68.4542 150.816 72.6092 154.392 77.1524C150.893 76.9971 147.317 76.8807 143.702 76.8807C140.048 76.8807 136.433 76.9583 132.896 77.1524C136.232 72.821 139.801 68.673 143.586 64.7264ZM114.82 87.5981C112.915 90.5881 111.011 93.6558 109.223 96.8007C107.435 99.9075 105.763 103.014 104.169 106.12C102.128 101.06 100.338 95.902 98.805 90.6657C103.897 89.462 109.261 88.4135 114.82 87.5981ZM79.6403 136.215C65.8796 130.351 56.9778 122.663 56.9778 116.566C56.9778 110.47 65.8796 102.743 79.6403 96.9179C82.9833 95.4808 86.6375 94.1994 90.4082 92.9957C92.6239 100.606 95.5393 108.528 99.1544 116.644C95.5784 124.721 92.7013 132.604 90.5247 140.176C86.6767 138.972 83.0224 137.652 79.6403 136.215ZM100.554 191.705C95.2672 188.676 92.9733 177.143 94.7622 162.309C95.1899 158.66 95.8887 154.815 96.744 150.893C104.364 152.757 112.682 154.194 121.428 155.126C126.676 162.309 132.118 168.833 137.599 174.541C124.927 186.308 113.032 192.753 104.946 192.753C103.197 192.715 101.72 192.365 100.554 191.705ZM192.76 162.116C194.586 176.949 192.332 188.482 187.084 191.55C185.918 192.249 184.402 192.559 182.613 192.559C174.567 192.559 162.633 186.152 149.961 174.464C155.403 168.756 160.845 162.271 166.015 155.087C174.801 154.155 183.119 152.718 190.738 150.815C191.632 154.738 192.332 158.504 192.76 162.116ZM207.725 136.215C204.382 137.652 200.728 138.934 196.957 140.137C194.741 132.526 191.826 124.605 188.211 116.489C191.788 108.412 194.664 100.529 196.841 92.9568C200.69 94.1606 204.343 95.4808 207.764 96.9179C221.525 102.781 230.427 110.47 230.427 116.566C230.388 122.663 221.486 130.39 207.725 136.215Z" fill="#61DAFB"/>
<path d="M143.663 134.312C153.475 134.312 161.429 126.367 161.429 116.566C161.429 106.765 153.475 98.8203 143.663 98.8203C133.852 98.8203 125.899 106.765 125.899 116.566C125.899 126.367 133.852 134.312 143.663 134.312ZM57.008 231.928H51.1438V242.017H47.8345V217.078H56.0992C58.9113 217.078 61.0718 217.718 62.5807 218.997C64.1011 220.275 64.8613 222.136 64.8613 224.58C64.8613 226.133 64.4383 227.486 63.5924 228.64C62.758 229.793 61.592 230.655 60.0945 231.226L65.9587 241.811V242.017H62.4264L57.008 231.928ZM51.1438 229.239H56.2022C57.8368 229.239 59.1342 228.816 60.0945 227.972C61.0661 227.127 61.5519 225.996 61.5519 224.58C61.5519 223.039 61.0889 221.857 60.1631 221.035C59.2485 220.212 57.9225 219.796 56.185 219.784H51.1438V229.239ZM76.6929 242.36C74.1778 242.36 72.1315 241.538 70.554 239.893C68.9765 238.238 68.1877 236.028 68.1877 233.265V232.682C68.1877 230.844 68.5364 229.205 69.2337 227.767C69.9425 226.316 70.9255 225.185 72.183 224.375C73.4519 223.553 74.8236 223.141 76.2982 223.141C78.7104 223.141 80.5853 223.935 81.9222 225.522C83.2599 227.109 83.9284 229.382 83.9284 232.339V233.658H71.3599C71.4056 235.486 71.9372 236.965 72.9546 238.095C73.9834 239.213 75.2865 239.774 76.8642 239.774C77.9846 239.774 78.9329 239.545 79.71 239.088C80.488 238.632 81.1677 238.027 81.751 237.273L83.6885 238.78C82.1334 241.166 79.8022 242.36 76.6929 242.36ZM76.2982 225.745C75.0179 225.745 73.9434 226.213 73.0746 227.149C72.2058 228.075 71.6686 229.376 71.4628 231.055H80.7566V230.815C80.6653 229.205 80.2307 227.96 79.4536 227.081C78.6756 226.191 77.6239 225.745 76.2982 225.745ZM99.0694 242.017C98.886 241.652 98.7374 241.001 98.6235 240.064C97.1484 241.594 95.3883 242.36 93.3421 242.36C91.5132 242.36 90.0104 241.846 88.8326 240.818C87.6669 239.779 87.0837 238.466 87.0837 236.879C87.0837 234.949 87.8156 233.453 89.2785 232.391C90.7527 231.317 92.8223 230.78 95.4856 230.78H98.5722V229.325C98.5722 228.217 98.2402 227.338 97.5778 226.687C96.9146 226.025 95.9367 225.694 94.6451 225.694C93.5133 225.694 92.565 225.979 91.7992 226.55C91.0334 227.121 90.6501 227.812 90.6501 228.623H87.4609C87.4609 227.698 87.7869 226.807 88.4379 225.95C89.1011 225.083 89.993 224.398 91.1134 223.895C92.2451 223.393 93.4847 223.141 94.8337 223.141C96.972 223.141 98.6461 223.678 99.8578 224.752C101.07 225.814 101.698 227.281 101.744 229.153V237.684C101.744 239.385 101.961 240.738 102.396 241.743V242.017H99.0694ZM93.8054 239.602C94.7998 239.602 95.7429 239.345 96.6347 238.831C97.5257 238.317 98.1715 237.65 98.5722 236.827V233.025H96.0854C92.1991 233.025 90.2555 234.161 90.2555 236.433C90.2555 237.426 90.5875 238.204 91.2499 238.763C91.9131 239.322 92.7649 239.602 93.8054 239.602ZM114.158 239.774C115.29 239.774 116.279 239.431 117.125 238.745C117.971 238.06 118.439 237.204 118.531 236.176H121.532C121.475 237.238 121.109 238.249 120.434 239.208C119.76 240.168 118.856 240.933 117.725 241.503C116.604 242.075 115.416 242.36 114.158 242.36C111.632 242.36 109.62 241.521 108.122 239.842C106.637 238.152 105.894 235.845 105.894 232.922V232.391C105.894 230.587 106.225 228.982 106.888 227.578C107.551 226.173 108.5 225.083 109.735 224.306C110.98 223.529 112.449 223.141 114.141 223.141C116.222 223.141 117.948 223.764 119.32 225.009C120.703 226.253 121.44 227.869 121.532 229.856H118.531C118.439 228.657 117.982 227.675 117.159 226.91C116.348 226.133 115.341 225.745 114.141 225.745C112.529 225.745 111.278 226.327 110.386 227.492C109.506 228.645 109.066 230.319 109.066 232.511V233.11C109.066 235.245 109.506 236.89 110.386 238.043C111.266 239.197 112.524 239.774 114.158 239.774ZM129.402 218.997V223.484H132.866V225.934H129.402V237.426C129.402 238.169 129.557 238.728 129.865 239.105C130.174 239.47 130.7 239.654 131.443 239.654C131.808 239.654 132.311 239.585 132.951 239.448V242.017C132.117 242.246 131.306 242.36 130.516 242.36C129.099 242.36 128.03 241.931 127.31 241.075C126.59 240.219 126.23 239.002 126.23 237.426V225.934H122.851V223.484H126.23V218.997H129.402ZM164.982 242.017H161.672L149.104 222.799V242.017H145.795V217.078H149.104L161.707 236.382V217.078H164.982V242.017ZM181.786 242.017C181.602 241.652 181.454 241.001 181.34 240.064C179.865 241.594 178.105 242.36 176.059 242.36C174.23 242.36 172.726 241.846 171.549 240.818C170.383 239.779 169.8 238.466 169.8 236.879C169.8 234.949 170.531 233.453 171.995 232.391C173.469 231.317 175.539 230.78 178.202 230.78H181.289V229.325C181.289 228.217 180.957 227.338 180.293 226.687C179.631 226.025 178.653 225.694 177.361 225.694C176.23 225.694 175.281 225.979 174.516 226.55C173.75 227.121 173.367 227.812 173.367 228.623H170.177C170.177 227.698 170.503 226.807 171.154 225.95C171.818 225.083 172.709 224.398 173.83 223.895C174.962 223.393 176.201 223.141 177.55 223.141C179.688 223.141 181.363 223.678 182.574 224.752C183.786 225.814 184.414 227.281 184.46 229.153V237.684C184.46 239.385 184.678 240.738 185.112 241.743V242.017H181.786ZM176.522 239.602C177.516 239.602 178.459 239.345 179.351 238.831C180.242 238.317 180.888 237.65 181.289 236.827V233.025H178.802C174.915 233.025 172.972 234.161 172.972 236.433C172.972 237.426 173.304 238.204 173.966 238.763C174.629 239.322 175.481 239.602 176.522 239.602ZM193.737 218.997V223.484H197.201V225.934H193.737V237.426C193.737 238.169 193.892 238.728 194.2 239.105C194.509 239.47 195.035 239.654 195.778 239.654C196.143 239.654 196.646 239.585 197.287 239.448V242.017C196.451 242.246 195.64 242.36 194.851 242.36C193.434 242.36 192.365 241.931 191.645 241.075C190.925 240.219 190.565 239.002 190.565 237.426V225.934H187.187V223.484H190.565V218.997H193.737ZM204.368 242.017H201.196V223.484H204.368V242.017ZM200.938 218.568C200.938 218.055 201.093 217.62 201.402 217.266C201.722 216.912 202.19 216.736 202.807 216.736C203.425 216.736 203.894 216.912 204.214 217.266C204.533 217.62 204.693 218.055 204.693 218.568C204.693 219.082 204.533 219.51 204.214 219.853C203.894 220.195 203.425 220.367 202.807 220.367C202.19 220.367 201.722 220.195 201.402 219.853C201.093 219.51 200.938 219.082 200.938 218.568ZM215.582 237.718L220.177 223.484H223.418L216.765 242.017H214.347L207.626 223.484H210.867L215.582 237.718ZM233.929 242.36C231.414 242.36 229.368 241.538 227.79 239.893C226.213 238.238 225.424 236.028 225.424 233.265V232.682C225.424 230.844 225.773 229.205 226.47 227.767C227.179 226.316 228.162 225.185 229.419 224.375C230.688 223.553 232.06 223.141 233.534 223.141C235.946 223.141 237.821 223.935 239.159 225.522C240.496 227.109 241.165 229.382 241.165 232.339V233.658H228.596C228.642 235.486 229.173 236.965 230.191 238.095C231.22 239.213 232.523 239.774 234.1 239.774C235.221 239.774 236.17 239.545 236.947 239.088C237.724 238.632 238.405 238.027 238.988 237.273L240.925 238.78C239.37 241.166 237.038 242.36 233.929 242.36ZM233.534 225.745C232.255 225.745 231.18 226.213 230.311 227.149C229.442 228.075 228.905 229.376 228.7 231.055H237.993V230.815C237.901 229.205 237.467 227.96 236.69 227.081C235.913 226.191 234.861 225.745 233.534 225.745Z" fill="#61DAFB"/>
</g>
<defs>
<clipPath id="clip0_3_488">
<rect width="289" height="231.533" fill="white" transform="translate(0 10.8271)"/>
</clipPath>
</defs>
</svg>
