<svg width="128" height="128" viewBox="0 0 128 128" fill="none" xmlns="http://www.w3.org/2000/svg">
<g clip-path="url(#clip0_33_706)">
<path d="M49.0667 115.4C58.4875 115.4 66.1333 107.754 66.1333 98.3333V81.2666H49.0667C39.6459 81.2666 32 88.9125 32 98.3333C32 107.754 39.6459 115.4 49.0667 115.4Z" fill="#0ACF83"/>
<path d="M32 64.2C32 54.7792 39.6459 47.1333 49.0667 47.1333H66.1333V81.2666H49.0667C39.6459 81.2666 32 73.6208 32 64.2Z" fill="#A259FF"/>
<path d="M32 30.0667C32 20.6459 39.6459 13 49.0667 13H66.1333V47.1333H49.0667C39.6459 47.1333 32 39.4875 32 30.0667Z" fill="#F24E1E"/>
<path d="M66.1333 13H83.2C92.6208 13 100.267 20.6459 100.267 30.0667C100.267 39.4875 92.6208 47.1333 83.2 47.1333H66.1333V13Z" fill="#FF7262"/>
<path d="M100.267 64.2C100.267 73.6208 92.6208 81.2666 83.2 81.2666C73.7792 81.2666 66.1333 73.6208 66.1333 64.2C66.1333 54.7792 73.7792 47.1333 83.2 47.1333C92.6208 47.1333 100.267 54.7792 100.267 64.2Z" fill="#1ABCFE"/>
</g>
<defs>
<clipPath id="clip0_33_706">
<rect width="68.2667" height="102.4" fill="white" transform="translate(32 13)"/>
</clipPath>
</defs>
</svg>
