<svg width="128" height="128" viewBox="0 0 128 128" fill="none" xmlns="http://www.w3.org/2000/svg">
<g clip-path="url(#clip0_21_682)">
<path d="M64.1771 114.941L34.6958 106.737L28.126 32.873H100.317L93.7398 106.726L64.1771 114.941Z" fill="#264DE4"/>
<path d="M88.1098 102.023L93.7301 38.9126H64.2217V108.662L88.1098 102.023Z" fill="#2965F1"/>
<path d="M43.1875 66.3079L43.9975 75.3669H64.2217V66.3079H43.1875Z" fill="#EBEBEB"/>
<path d="M41.5596 47.9718L42.3811 57.0311H64.2214V47.9718H41.5596Z" fill="#EBEBEB"/>
<path d="M64.2208 89.8354L64.1812 89.846L54.1161 87.1217L53.4726 79.8966H44.4004L45.6665 94.1208L64.1792 99.2723L64.2208 99.2608V89.8354Z" fill="#EBEBEB"/>
<path d="M45.1152 12.7999H56.0612V17.3883H49.6926V21.9767H56.0612V26.5651H45.1152V12.7999Z" fill="black"/>
<path d="M58.251 12.7999H69.197V16.7898H62.8284V17.5878H69.197V26.7646H58.251V22.5752H64.6196V21.7772H58.251V12.7999Z" fill="black"/>
<path d="M71.3857 12.7999H82.3317V16.7898H75.9632V17.5878H82.3317V26.7646H71.3857V22.5752H77.7543V21.7772H71.3857V12.7999Z" fill="black"/>
<path d="M85.198 66.3078L86.8295 47.9718H64.1904V57.0311H76.9252L76.1029 66.3078H64.1904V75.3668H75.3191L74.2701 87.1159L64.1904 89.8429V99.2679L82.7178 94.1207L82.8537 92.5902L84.9775 68.7404L85.198 66.3078Z" fill="white"/>
</g>
<defs>
<clipPath id="clip0_21_682">
<rect width="72.4426" height="102.4" fill="white" transform="translate(28 12.7999)"/>
</clipPath>
</defs>
</svg>
