<svg width="127" height="127" viewBox="0 0 127 127" fill="none" xmlns="http://www.w3.org/2000/svg">
<g clip-path="url(#clip0_21_656)">
<path d="M98.8746 32.7987L92.338 105.642L62.9559 113.745L33.6546 105.653L27.125 32.7987H98.8746Z" fill="#E44D26"/>
<path d="M63 107.551L86.7422 101.003L92.3281 38.7556H63V107.551Z" fill="#F16529"/>
<path d="M50.2931 56.6264H62.9999V47.691H40.4766L40.6916 50.0883L42.8992 74.7115H62.9999V65.7763H51.114L50.2931 56.6264Z" fill="#EBEBEB"/>
<path d="M52.3176 79.1793H43.3008L44.5592 93.209L62.9588 98.2901L63.0001 98.2787V88.9823L62.9607 88.9927L52.9571 86.3056L52.3176 79.1793Z" fill="#EBEBEB"/>
<path d="M33.8008 13H38.3655V17.4863H42.5411V13H47.1059V26.5856H42.5413V22.0363H38.3657V26.5856H33.801L33.8008 13Z" fill="black"/>
<path d="M53.1084 17.5052H49.0898V13H61.6938V17.5052H57.6735V26.5856H53.1086L53.1084 17.5052Z" fill="black"/>
<path d="M63.6943 13H68.4541L71.3819 17.7736L74.3068 13H79.0683V26.5856H74.5224V19.8518L71.3819 24.6823H71.3034L68.1607 19.8518V26.5856H63.6943V13Z" fill="black"/>
<path d="M81.3398 13H85.9059V22.095H92.3252V26.5856H81.3398V13Z" fill="black"/>
<path d="M62.9688 74.7116H74.0295L72.9868 86.3L62.9688 88.9898V98.2859L81.3829 93.2091L81.518 91.6995L83.6288 68.1757L83.848 65.7764H62.9688V74.7116Z" fill="white"/>
<path d="M62.9688 56.6046V56.6264H84.6653L84.8455 54.618L85.2547 50.0883L85.4695 47.691H62.9688V56.6046Z" fill="white"/>
</g>
<defs>
<clipPath id="clip0_21_656">
<rect width="72" height="101" fill="white" transform="translate(27 13)"/>
</clipPath>
</defs>
</svg>
