<svg width="128" height="83" viewBox="0 0 128 83" fill="none" xmlns="http://www.w3.org/2000/svg">
<path d="M22.8994 75.2492H20.5928V79.7135C20.5928 80.904 21.3741 80.8854 22.8994 80.8109V82.6153C19.8116 82.9873 18.5839 82.1316 18.5839 79.7135V75.2492H16.8726V73.3147H18.5839V70.8162L20.5928 70.221V73.3147H22.8994V75.2492ZM31.6919 73.3147H33.7008V82.6153H31.6919V81.276C30.985 82.2618 29.8875 82.8571 28.4366 82.8571C25.9069 82.8571 23.8049 80.7179 23.8049 77.965C23.8049 75.1934 25.9069 73.0728 28.4366 73.0728C29.8875 73.0728 30.985 73.6681 31.6919 74.6353V73.3147ZM28.7529 80.9412C30.427 80.9412 31.6919 79.6949 31.6919 77.965C31.6919 76.235 30.427 74.9888 28.7529 74.9888C27.0788 74.9888 25.8139 76.235 25.8139 77.965C25.8139 79.6949 27.0788 80.9412 28.7529 80.9412ZM37.049 71.9196C36.3422 71.9196 35.7655 71.3243 35.7655 70.6361C35.7655 69.9292 36.3422 69.3526 37.049 69.3526C37.7558 69.3526 38.3325 69.9292 38.3325 70.6361C38.3325 71.3243 37.7558 71.9196 37.049 71.9196ZM36.0445 82.6153V73.3147H38.0535V82.6153H36.0445ZM40.3786 82.6153V69.0364H42.3876V82.6153H40.3786ZM55.427 73.3147H57.5475L54.6272 82.6153H52.6554L50.7209 76.3467L48.7678 82.6153H46.796L43.8756 73.3147H45.9962L47.8005 79.7321L49.7536 73.3147H51.6696L53.6041 79.7321L55.427 73.3147ZM60.0401 71.9196C59.3333 71.9196 58.7566 71.3243 58.7566 70.6361C58.7566 69.9292 59.3333 69.3526 60.0401 69.3526C60.747 69.3526 61.3236 69.9292 61.3236 70.6361C61.3236 71.3243 60.747 71.9196 60.0401 71.9196ZM59.0356 82.6153V73.3147H61.0446V82.6153H59.0356ZM68.2618 73.0728C70.3452 73.0728 71.8333 74.4865 71.8333 76.9047V82.6153H69.8243V77.1093C69.8243 75.6956 69.0059 74.9516 67.741 74.9516C66.4203 74.9516 65.3787 75.7328 65.3787 77.6301V82.6153H63.3697V73.3147H65.3787V74.5051C65.9925 73.5379 66.997 73.0728 68.2618 73.0728ZM81.3571 69.5944H83.366V82.6153H81.3571V81.276C80.6503 82.2618 79.5528 82.8571 78.1019 82.8571C75.5721 82.8571 73.4702 80.7179 73.4702 77.965C73.4702 75.1934 75.5721 73.0728 78.1019 73.0728C79.5528 73.0728 80.6503 73.6681 81.3571 74.6353V69.5944ZM78.4181 80.9412C80.0922 80.9412 81.3571 79.6949 81.3571 77.965C81.3571 76.235 80.0922 74.9888 78.4181 74.9888C76.744 74.9888 75.4791 76.235 75.4791 77.965C75.4791 79.6949 76.744 80.9412 78.4181 80.9412ZM90.0997 82.8571C87.2909 82.8571 85.1889 80.7179 85.1889 77.965C85.1889 75.1934 87.2909 73.0728 90.0997 73.0728C91.9226 73.0728 93.5037 74.0215 94.2477 75.4724L92.5178 76.4769C92.1086 75.6026 91.1971 75.0446 90.0811 75.0446C88.4442 75.0446 87.1979 76.2909 87.1979 77.965C87.1979 79.6391 88.4442 80.8854 90.0811 80.8854C91.1971 80.8854 92.1086 80.3087 92.555 79.4531L94.2849 80.4389C93.5037 81.9084 91.9226 82.8571 90.0997 82.8571ZM97.596 75.8816C97.596 77.5743 102.6 76.5513 102.6 79.9925C102.6 81.8526 100.981 82.8571 98.9725 82.8571C97.1123 82.8571 95.773 82.02 95.1778 80.6807L96.9077 79.6763C97.2053 80.5133 97.9494 81.0156 98.9725 81.0156C99.8653 81.0156 100.554 80.7179 100.554 79.9739C100.554 78.3184 95.5498 79.2484 95.5498 75.9188C95.5498 74.1703 97.0565 73.0728 98.9538 73.0728C100.479 73.0728 101.744 73.7797 102.395 75.0074L100.702 75.956C100.368 75.2306 99.7165 74.8958 98.9538 74.8958C98.2284 74.8958 97.596 75.212 97.596 75.8816ZM106.171 75.8816C106.171 77.5743 111.175 76.5513 111.175 79.9925C111.175 81.8526 109.557 82.8571 107.548 82.8571C105.687 82.8571 104.348 82.02 103.753 80.6807L105.483 79.6763C105.78 80.5133 106.525 81.0156 107.548 81.0156C108.44 81.0156 109.129 80.7179 109.129 79.9739C109.129 78.3184 104.125 79.2484 104.125 75.9188C104.125 74.1703 105.632 73.0728 107.529 73.0728C109.054 73.0728 110.319 73.7797 110.97 75.0074L109.278 75.956C108.943 75.2306 108.292 74.8958 107.529 74.8958C106.804 74.8958 106.171 75.212 106.171 75.8816Z" fill="#2D3748"/>
<path d="M64.4322 0C52.317 0 44.7449 6.05763 41.7161 18.1729C46.2593 12.1153 51.5598 9.84365 57.6174 11.3581C61.0736 12.2221 63.544 14.7295 66.2783 17.505C70.7327 22.0264 75.8881 27.2593 87.1484 27.2593C99.2636 27.2593 106.836 21.2017 109.864 9.08645C105.321 15.1441 100.021 17.4157 93.9632 15.9013C90.507 15.0372 88.0367 12.5299 85.3023 9.7543C80.8479 5.23295 75.6925 0 64.4322 0ZM41.7161 27.2593C29.6009 27.2593 22.0288 33.317 19 45.4322C23.5432 39.3746 28.8437 37.103 34.9013 38.6174C38.3575 39.4815 40.8278 41.9888 43.5622 44.7644C48.0166 49.2857 53.1719 54.5187 64.4322 54.5187C76.5475 54.5187 84.1196 48.4611 87.1484 36.3458C82.6051 42.4034 77.3047 44.675 71.2471 43.1606C67.7909 42.2966 65.3205 39.7892 62.5862 37.0137C58.1318 32.4923 52.9764 27.2593 41.7161 27.2593Z" fill="url(#paint0_linear_3_630)"/>
<defs>
<linearGradient id="paint0_linear_3_630" x1="-233.401" y1="1744.6" x2="7614.24" y2="6269.36" gradientUnits="userSpaceOnUse">
<stop stop-color="#2298BD"/>
<stop offset="1" stop-color="#0ED7B5"/>
</linearGradient>
</defs>
</svg>
